<svg width="23" height="44" viewBox="0 0 23 44" fill="none" xmlns="http://www.w3.org/2000/svg">
<path d="M6.85963 2.07093C12.2605 2.93249 16.2185 7.81131 17.3945 12.9286C18.7007 18.5768 16.9349 24.3689 14.6659 29.3925C13.119 32.8135 11.3085 36.0748 9.2128 39.1517C8.64602 39.979 7.31084 39.0657 7.87762 38.2384C9.63041 35.626 11.2074 32.9071 12.5633 30.0774C13.7644 27.5944 14.811 25.0293 15.5011 22.341C16.738 17.5151 16.5776 12.0858 13.3559 7.86181C11.7225 5.74771 9.42996 4.06883 6.79605 3.66677C6.36815 3.60455 6.02379 3.25679 6.04806 2.80785C6.04853 2.37926 6.43174 2.0087 6.85963 2.07093Z" fill="white"/>
<path d="M14.8421 39.7699C12.4038 40.017 9.96303 40.3089 7.52226 40.6008C6.92868 40.6809 6.43789 40.1173 6.60471 39.5471C6.82874 38.7569 6.91989 37.9094 6.85198 37.0696C6.76758 36.1157 6.43391 35.1612 6.39461 34.2114C6.34999 33.7793 6.84415 33.4421 7.2263 33.5001C7.67731 33.5419 7.94986 33.9501 7.97314 34.3577C8.03378 35.332 8.38878 36.311 8.44942 37.2852C8.51005 38.2595 8.36897 39.1925 8.11632 40.0927C7.81758 39.7496 7.49751 39.3821 7.19877 39.039C9.63954 38.7471 12.1016 38.4797 14.5186 38.2082C15.523 38.076 15.8678 39.6623 14.8421 39.7699Z" fill="white"/>
</svg>
