<svg width="25" height="25" viewBox="0 0 25 25" fill="none" xmlns="http://www.w3.org/2000/svg">
<path d="M8.67868 13.5L12.9063 16.8821C13.3343 17.2245 13.958 17.1586 14.305 16.7345L22.6787 6.5" stroke="#222222" stroke-width="1.2" stroke-linecap="round"/>
<path fill-rule="evenodd" clip-rule="evenodd" d="M11.2439 12.8677L16.1429 6.87999C16.3528 6.62352 16.315 6.2455 16.0585 6.03567C15.802 5.82583 15.424 5.86363 15.2142 6.1201L10.322 12.0995L11.2439 12.8677ZM8.71083 15.9637L7.78892 15.1954L6.82125 16.3782C6.68551 16.544 6.44314 16.5735 6.27166 16.4449L3.03857 14.02C2.77348 13.8212 2.3974 13.8749 2.19857 14.14C1.99975 14.4051 2.05348 14.7812 2.31857 14.98L5.55166 17.4049C6.23757 17.9193 7.20707 17.8016 7.75 17.138L8.71083 15.9637Z" fill="#7E869E" fill-opacity="0.25"/>
</svg>
