<svg width="37" height="37" viewBox="0 0 37 37" fill="none" xmlns="http://www.w3.org/2000/svg">
<path d="M18.375 35.75C22.3948 35.75 26.2902 34.3562 29.3976 31.8061C32.5049 29.2559 34.6319 25.7073 35.4161 21.7647C36.2004 17.8221 35.5933 13.7296 33.6984 10.1845C31.8035 6.63934 28.7379 3.8609 25.0241 2.32259C21.3103 0.784284 17.178 0.581276 13.3313 1.74816C9.4846 2.91505 6.1615 5.37962 3.92822 8.72196C1.69494 12.0643 0.689657 16.0776 1.08366 20.078C1.47767 24.0785 3.24659 27.8185 6.08902 30.661" stroke="#FFC800" stroke-width="2" stroke-linecap="round"/>
<path d="M26.0972 14.5139L17.8465 24.4148C17.1909 25.2015 16.8631 25.5948 16.4226 25.6148C15.982 25.6348 15.6199 25.2727 14.8958 24.5486L10.6528 20.3056" stroke="#FFC800" stroke-width="2" stroke-linecap="round"/>
</svg>
