<svg width="445" height="63" viewBox="0 0 445 63" fill="none" xmlns="http://www.w3.org/2000/svg">
<path d="M286.484 45.688C286.484 44.26 286.843 42.5847 288.128 41.8348C288.91 41.396 290.138 41.1806 290.744 41.0131C291.143 40.9014 291.446 40.67 291.478 40.3589H292.388C292.388 41.1806 291.965 41.5635 291.223 41.7709C290.713 41.9145 289.348 42.1459 288.63 42.5129C287.833 42.9357 287.426 43.8611 287.322 45.0418H287.362C287.801 43.9488 288.814 43.3585 290.027 43.3585C291.782 43.3585 292.994 44.595 292.994 46.398C292.994 48.2009 291.75 49.581 289.763 49.581C287.944 49.581 286.492 48.5041 286.492 45.68M292.021 46.4458C292.021 45.0497 291.024 44.2121 289.787 44.2121C288.551 44.2121 287.545 45.0497 287.545 46.4299C287.545 47.81 288.559 48.6636 289.787 48.6636C291.016 48.6636 292.021 47.8339 292.021 46.4458Z" fill="white"/>
<path d="M294.199 43.4697H295.132V47.9851H295.156L298.547 43.4697H299.48V49.3971H298.547V44.8818H298.523L295.148 49.3971H294.199V43.4697Z" fill="white"/>
<path d="M300.477 49.0299L300.876 48.2241C301.387 48.4794 302.057 48.7347 302.982 48.7347C303.908 48.7347 304.634 48.4794 304.634 47.7056C304.634 46.9318 304.067 46.6924 303.03 46.6924H301.913V45.8707H302.982C303.876 45.8707 304.442 45.6633 304.442 45.0091C304.442 44.4028 303.892 44.1396 302.99 44.1396C302.224 44.1396 301.49 44.355 300.988 44.5464L300.669 43.7088C301.219 43.5014 302.081 43.27 303.03 43.27C304.514 43.27 305.415 43.8125 305.415 44.8097C305.415 45.5676 304.905 46.0941 304.003 46.2058V46.2297C304.992 46.3175 305.567 46.836 305.567 47.7694C305.567 48.8703 304.769 49.5803 302.934 49.5803C301.897 49.5803 301.083 49.349 300.469 49.0139" fill="white"/>
<path d="M312.109 43.4697V49.3971H311.191V46.6927H307.737V49.3971H306.811V43.4697H307.737V45.8311H311.191V43.4697H312.109Z" fill="white"/>
<path d="M319.193 46.3981V46.5656H314.263C314.286 47.8739 315.148 48.6956 316.393 48.6956C317.493 48.6956 318.06 48.0415 318.419 47.5628L319.089 48.1691C318.65 48.7834 317.892 49.5891 316.408 49.5891C314.534 49.5891 313.329 48.3207 313.329 46.4459C313.329 44.5712 314.534 43.2788 316.345 43.2788C318.283 43.2788 319.193 44.643 319.193 46.3981ZM314.302 45.8556H318.187C318.1 44.7786 317.43 44.1404 316.289 44.1404C315.26 44.1404 314.438 44.7307 314.302 45.8556Z" fill="white"/>
<path d="M320.046 46.438C320.046 44.5552 321.371 43.2788 323.269 43.2788C324.027 43.2788 324.665 43.4862 325.296 43.8692L324.849 44.6669C324.346 44.3717 323.836 44.1803 323.245 44.1803C321.897 44.1803 321.028 45.1855 321.028 46.438C321.028 47.6904 321.897 48.6956 323.245 48.6956C323.836 48.6956 324.346 48.5042 324.849 48.209L325.296 49.0068C324.665 49.3897 324.027 49.5971 323.269 49.5971C321.371 49.5971 320.046 48.3287 320.046 46.438Z" fill="white"/>
<path d="M292.851 20.311C296.249 20.311 299.001 22.8001 299.001 26.2065C299.001 29.613 296.201 32.1339 293.026 32.1339C291.534 32.1339 290.098 31.7111 289.013 30.4825H288.886V39.0665H286.62V27.1479C286.62 22.9835 289.013 20.319 292.851 20.319M292.819 30.1475C295.068 30.1475 296.608 28.3684 296.608 26.2145C296.608 24.0605 295.1 22.3134 292.819 22.3134C290.537 22.3134 288.965 24.0605 288.965 26.1985C288.965 28.3365 290.553 30.1475 292.819 30.1475Z" fill="white"/>
<path d="M301.107 26.2225C301.107 22.824 303.955 20.311 307.306 20.311C310.657 20.311 313.505 22.824 313.505 26.2225C313.505 29.6209 310.657 32.1339 307.306 32.1339C303.955 32.1339 301.107 29.6209 301.107 26.2225ZM307.306 30.1395C309.572 30.1395 311.111 28.3924 311.111 26.2225C311.111 24.0525 309.572 22.3054 307.306 22.3054C305.04 22.3054 303.501 24.0366 303.501 26.2225C303.501 28.4083 305.04 30.1395 307.306 30.1395Z" fill="white"/>
<path d="M321.881 32.1339C318.315 32.1339 315.611 29.6369 315.611 26.2225C315.611 22.808 318.251 20.311 321.793 20.311C324.514 20.311 327.059 21.7869 327.705 24.587H325.375C324.809 23.0793 323.445 22.3054 321.865 22.3054C319.472 22.3054 318.012 24.0845 318.012 26.2544C318.012 28.4243 319.52 30.1395 321.913 30.1395C323.469 30.1395 324.873 29.4295 325.423 27.7941H327.769C326.923 30.7777 324.498 32.1339 321.873 32.1339" fill="white"/>
<path d="M336.177 30.4987L332.452 22.7126H332.388V31.8948H330.202V20.5586H333.688L337.374 28.3129H337.438L341.131 20.5586H344.61V31.8948H342.432V22.7126H342.368L338.642 30.4987H336.177Z" fill="white"/>
<path d="M347.043 26.2225C347.043 22.824 349.891 20.311 353.241 20.311C356.592 20.311 359.44 22.824 359.44 26.2225C359.44 29.6209 356.592 32.1339 353.241 32.1339C349.891 32.1339 347.043 29.6209 347.043 26.2225ZM353.241 30.1395C355.507 30.1395 357.047 28.3924 357.047 26.2225C357.047 24.0525 355.507 22.3054 353.241 22.3054C350.976 22.3054 349.436 24.0366 349.436 26.2225C349.436 28.4083 350.976 30.1395 353.241 30.1395Z" fill="white"/>
<path d="M360.597 31.9906V29.6451H360.644C361.083 29.6451 361.618 29.4537 361.937 29.0787C362.36 28.608 362.567 27.7704 362.798 26.5339L363.126 24.7229C363.501 22.6328 364.242 20.5107 367.386 20.5107H371.805V31.8948H369.54V22.6168H367.776C366.013 22.6168 365.638 23.1035 365.216 25.5127L364.921 27.212C364.665 28.7676 364.274 30.1078 363.461 30.9694C362.846 31.6156 361.985 31.9906 360.836 31.9906H360.597Z" fill="white"/>
<path d="M374.31 26.2225C374.31 22.824 377.158 20.311 380.509 20.311C383.86 20.311 386.708 22.824 386.708 26.2225C386.708 29.6209 383.86 32.1339 380.509 32.1339C377.158 32.1339 374.31 29.6209 374.31 26.2225ZM380.509 30.1395C382.775 30.1395 384.314 28.3924 384.314 26.2225C384.314 24.0525 382.775 22.3054 380.509 22.3054C378.243 22.3054 376.704 24.0366 376.704 26.2225C376.704 28.4083 378.243 30.1395 380.509 30.1395Z" fill="white"/>
<path d="M389.332 34.6471H387.146V29.7887H388.622C389.268 29.0628 389.611 27.9778 389.914 26.6615L390.401 24.5554C390.872 22.5291 391.741 20.5107 394.549 20.5107H398.953V29.7887H400.589V34.6471H398.403V31.8948H389.332V34.6471ZM396.711 29.8366V22.5849H394.589C393.209 22.5849 392.747 23.6858 392.467 24.8506L391.965 27.0364C391.693 28.249 391.271 29.2542 390.848 29.677V29.8366H396.711Z" fill="white"/>
<path d="M408.502 32.1341C404.888 32.1341 402.272 29.6371 402.272 26.2226C402.272 22.8082 404.912 20.3112 408.423 20.3112C411.143 20.3112 414.414 22.0902 414.414 26.3981V26.8688H404.537C404.777 28.7595 406.253 30.1397 408.486 30.1397C409.811 30.1397 411.398 29.653 411.837 28.5042H414.166C413.456 30.9933 410.816 32.1341 408.502 32.1341ZM404.569 16.4102H406.915V18.7556H404.569V16.4102ZM412.052 25.1377C411.693 23.4225 410.369 22.2737 408.391 22.2737C406.412 22.2737 405.056 23.5023 404.633 25.1377H412.052ZM409.675 16.4102H412.021V18.7556H409.675V16.4102Z" fill="white"/>
<path d="M425.104 20.5586V25.058H426.995L429.667 20.5586H432.164L428.845 25.9674L432.435 31.8948H429.898L427.026 27.1162H425.104V31.8948H422.966V27.1162H421.035L418.171 31.8948H415.626L419.224 25.9674L415.906 20.5586H418.395L421.067 25.058H422.966V20.5586H425.104Z" fill="white"/>
<path d="M434.023 26.7891L433.991 20.5586H436.257L436.273 23.7816H436.336C437.294 22.6168 438.506 22.0504 439.966 22.0504C442.75 22.0504 445 24.1246 445 27.0205C445 29.9164 442.703 32.1341 439.543 32.1341C436.384 32.1341 434.039 29.8844 434.023 26.7891ZM439.496 30.1397C441.29 30.1397 442.607 28.8793 442.607 27.1082C442.607 25.3372 441.298 24.0448 439.496 24.0448C437.693 24.0448 436.4 25.3372 436.4 27.1082C436.4 28.8793 437.709 30.1397 439.496 30.1397Z" fill="white"/>
<path d="M247.322 50.4906L224.937 37.1759V49.3976H218.882V26.5178L246.7 43.0714L275.276 18.7954V49.3976H269.221V31.8867L247.322 50.4906Z" fill="#FFC800"/>
<path d="M132.364 39.4335H130.673V33.4264C130.673 33.2748 130.689 33.1152 130.761 32.9796L130.745 32.9637C130.609 33.0355 130.466 33.0355 130.258 33.0355H127.378C127.171 33.0355 127.035 33.0355 126.9 32.9637L126.884 32.9796C126.956 33.1152 126.972 33.2748 126.972 33.4264V39.4335H125.28V31.4639H132.372V39.4335H132.364Z" fill="white"/>
<path d="M142.831 35.4448C142.831 37.9258 141.228 39.6889 138.962 39.6889C137.63 39.6889 136.601 39.0507 136.026 37.878L135.954 37.8939C136.058 38.2768 136.106 38.8991 136.106 39.5692V42.8799H134.415V31.456H136.05C136.05 32.15 136.018 32.7005 135.946 32.9957L136.018 33.0116C136.609 31.8389 137.622 31.2007 138.954 31.2007C141.212 31.2007 142.823 32.9637 142.823 35.4448M136.042 35.4448C136.042 37.0164 137.111 38.1013 138.627 38.1013C140.143 38.1013 141.028 37.0962 141.028 35.4448C141.028 33.7934 140.127 32.7882 138.627 32.7882C137.127 32.7882 136.042 33.8732 136.042 35.4448Z" fill="white"/>
<path d="M152.612 35.4448C152.612 37.878 150.769 39.6889 148.248 39.6889C145.727 39.6889 143.884 37.878 143.884 35.4448C143.884 33.0116 145.727 31.2007 148.248 31.2007C150.769 31.2007 152.612 33.0116 152.612 35.4448ZM145.671 35.4448C145.671 37.0004 146.708 38.0295 148.24 38.0295C149.772 38.0295 150.809 36.9925 150.809 35.4448C150.809 33.8971 149.772 32.8521 148.24 32.8521C146.708 32.8521 145.671 33.8892 145.671 35.4448Z" fill="white"/>
<path d="M161.531 35.4448V35.7719H156.409C155.827 35.7719 155.547 35.74 155.356 35.6362L155.324 35.6682L155.396 35.8756C155.571 37.2876 156.449 38.0854 157.861 38.0854C158.794 38.0854 159.48 37.7583 160.278 36.9127L161.315 38.0375C160.382 39.1624 159.265 39.6969 157.829 39.6969C155.348 39.6969 153.673 38.0216 153.673 35.5006C153.673 32.9797 155.276 31.2007 157.725 31.2007C160.174 31.2007 161.539 32.8042 161.539 35.4448M155.412 34.6311L155.444 34.663C155.635 34.5593 156.01 34.4875 156.425 34.4875H158.443C159.273 34.4875 159.552 34.5194 159.72 34.639L159.752 34.6071C159.648 33.4185 158.89 32.7244 157.662 32.7244C156.433 32.7244 155.571 33.4344 155.404 34.6231" fill="white"/>
<path d="M167.538 38.4516L167.139 37.0396C166.932 36.2259 166.652 35.9546 166.014 35.9546H165.272C165.065 35.9546 164.841 35.9387 164.738 35.9227L164.722 35.9387C164.793 36.1621 164.809 36.3376 164.809 36.6647V39.4409H163.118V31.4712H164.809V33.9363C164.809 34.2315 164.793 34.399 164.722 34.6304L164.738 34.6463C164.841 34.6304 165.065 34.6144 165.272 34.6144H166.014C166.668 34.6144 166.86 34.4548 167.155 33.6491L167.737 32.2371C167.961 31.6707 168.431 31.4233 169.293 31.4233H170.139V32.9391H169.779C169.277 32.9391 169.085 33.0588 168.886 33.5454L168.607 34.2714C168.383 34.9255 167.849 35.2367 166.916 35.2526V35.3244C167.937 35.3404 168.399 35.6355 168.607 36.3615L168.934 37.4863C169.07 37.9171 169.189 37.9889 169.748 37.9889H170.178V39.5047H169.173C168.256 39.5047 167.737 39.1776 167.538 38.4676" fill="white"/>
<path d="M178.443 31.4556V33.0272H175.938C175.731 33.0272 175.595 33.0272 175.452 32.9554L175.436 32.9713C175.508 33.1069 175.523 33.2665 175.523 33.4181V39.4252H173.832V33.4181C173.832 33.2585 173.848 33.1069 173.92 32.9713L173.904 32.9554C173.768 33.0272 173.625 33.0272 173.417 33.0272H170.912V31.4556H178.435H178.443Z" fill="white"/>
<path d="M193.058 35.4448C193.058 37.878 191.215 39.6889 188.695 39.6889C186.174 39.6889 184.331 37.878 184.331 35.4448C184.331 33.0116 186.174 31.2007 188.695 31.2007C191.215 31.2007 193.058 33.0116 193.058 35.4448ZM186.118 35.4448C186.118 37.0004 187.155 38.0295 188.687 38.0295C190.218 38.0295 191.255 36.9925 191.255 35.4448C191.255 33.8971 190.218 32.8521 188.687 32.8521C187.155 32.8521 186.118 33.8892 186.118 35.4448Z" fill="white"/>
<path d="M201.132 31.4556V33.0272H198.627C198.419 33.0272 198.284 33.0272 198.14 32.9554L198.124 32.9713C198.196 33.1069 198.212 33.2665 198.212 33.4181V39.4252H196.521V33.4181C196.521 33.2585 196.536 33.1069 196.608 32.9713L196.592 32.9554C196.457 33.0272 196.313 33.0272 196.106 33.0272H193.601V31.4556H201.124H201.132Z" fill="white"/>
<path d="M63.2231 44.5091H66.5917V62.0854H69.8152V44.5091H73.1839V41.5791H63.2231V44.5091ZM57.6571 52.6839L58.9769 47.6463V62.0888H61.8756V41.5826H58.3308L55.6946 50.0477L54.5234 54.5601V41.5826H51.6523V62.0888H54.9622L57.6571 52.6839ZM42.3652 44.5091H46.0275V62.0854H49.3098V41.5791H39.1452V62.0854H42.3687V44.5091H42.3652ZM34.132 54.4391V57.3691C34.132 58.8341 33.4859 59.3627 32.4632 59.3627C31.4405 59.3627 30.7944 58.8341 30.7944 57.3691V46.2954C30.7944 44.8304 31.4405 44.2741 32.4632 44.2741C33.4859 44.2741 34.132 44.8304 34.132 46.2954V48.4929H37.1793V46.4992C37.1793 43.2169 35.5382 41.3442 32.3734 41.3442C29.2086 41.3442 27.5675 43.2203 27.5675 46.4992V57.1618C27.5675 60.4442 29.2086 62.3169 32.3734 62.3169C35.5382 62.3169 37.1793 60.4407 37.1793 57.1618V54.4357H34.132V54.4391ZM15.7341 44.5091H21.3001V41.5791H12.5106V62.0854H21.3001V59.1554H15.7341V53.1504H20.1565V50.2204H15.7341V44.5091ZM3.22351 53.299H6.88582V62.0888H10.1681V41.5826H6.88582V50.3725H3.22351V41.5826H0V62.0888H3.22351V53.299ZM65.8558 32.2952V35.2251C65.8558 36.6901 65.2097 37.2187 64.187 37.2187C63.1644 37.2187 62.5183 36.6901 62.5183 35.2251V24.1514C62.5183 22.6864 63.1644 22.1302 64.187 22.1302C65.2097 22.1302 65.8558 22.6864 65.8558 24.1514V26.3489H68.9031V24.3553C68.9031 21.0729 67.262 19.2002 64.0972 19.2002C60.9324 19.2002 59.2913 21.0763 59.2913 24.3553V35.0178C59.2913 38.3002 60.9324 40.1729 64.0972 40.1729C67.262 40.1729 68.9031 38.2967 68.9031 35.0178V32.2917H65.8558V32.2952ZM51.9978 22.3651H57.5638V19.4351H48.7743V39.9414H57.5638V37.0114H51.9978V31.0064H56.4202V28.0764H51.9978V22.3651ZM39.4872 31.155H43.1495V39.9448H46.4318V19.4386H43.1495V28.2285H39.4872V19.4386H36.2637V39.9448H39.4872V31.155ZM30.8739 25.6164C30.8739 27.2576 30.1414 27.7828 28.9391 27.7828H27.9717V30.7127H28.7629C30.2278 30.7127 30.8704 31.4176 30.8704 33.3213V34.9314C30.8704 36.7488 30.2244 37.2464 29.2017 37.2464C28.179 37.2464 27.5329 36.6901 27.5329 35.2251V32.7651H24.4856V35.0213C24.4856 38.3037 26.1267 40.1763 29.2915 40.1763C32.4563 40.1763 34.0974 38.3002 34.0974 35.0213V33.4112C34.0974 31.3312 33.4513 29.8075 31.8413 29.1061C33.3926 28.46 34.0974 27.0848 34.0974 24.8874V24.3587C34.0974 21.0763 32.4563 19.2036 29.2915 19.2036C26.1267 19.2036 24.5443 21.0211 24.5443 24.3V25.8237H27.5018V24.1549C27.5018 22.6899 28.1755 22.1336 29.2017 22.1336C30.2278 22.1336 30.8704 22.6311 30.8704 24.4762V25.6198L30.8739 25.6164ZM18.1595 30.5365L19.4793 25.4989V39.9414H22.378V19.4351H18.8332L16.197 27.9002L15.0258 32.4126V19.4351H12.1547V39.9414H15.4646L18.1595 30.5365ZM3.2477 37.0114V30.5365H5.12376C6.1499 30.5365 6.76489 31.0064 6.76489 32.4714V35.08C6.76489 36.545 6.1499 37.0149 5.12376 37.0149H3.2477V37.0114ZM5.12376 39.9414C8.34728 39.9414 9.98841 38.1551 9.98841 34.8727V32.6752C9.98841 29.3929 8.34728 27.6065 5.12376 27.6065H3.2477V22.3616H9.04865V19.4317H0.024177V39.9379H5.12031L5.12376 39.9414Z" fill="white"/>
<path d="M82.2152 10.5761C82.115 11.0288 82.0252 11.4883 81.9457 11.9444L82.5089 11.5954C82.5918 11.547 82.6748 11.4987 82.7577 11.4468C82.8406 11.395 82.9201 11.3397 82.9995 11.281L83.0064 11.2741C83.079 11.2223 83.1412 11.167 83.1965 11.1082C83.2483 11.0495 83.2932 10.9839 83.3312 10.9182C83.3588 10.856 83.3761 10.7973 83.383 10.7351C83.3899 10.6763 83.383 10.6176 83.3727 10.5589C83.3657 10.5416 83.3588 10.5243 83.3416 10.514C83.3208 10.4967 83.2932 10.4794 83.2587 10.4656C83.193 10.4587 83.1274 10.4587 83.0617 10.4587C82.9892 10.4587 82.9097 10.469 82.8233 10.4863H82.8129C82.7369 10.4967 82.6402 10.5105 82.5331 10.5278C82.4364 10.5416 82.3431 10.5589 82.2532 10.5727H82.2429L82.2152 10.5761ZM78.8846 7.54253C78.9641 7.41124 79.0574 7.3214 79.1714 7.27648L79.1921 7.26958C79.3061 7.22812 79.4305 7.22811 79.5618 7.27648C79.7104 7.32486 79.8106 7.41123 79.8658 7.53562C79.9177 7.64964 79.9211 7.78439 79.8762 7.93988C79.8727 7.9537 79.8693 7.96406 79.8624 7.97442C79.6102 8.55489 79.3752 9.14226 79.161 9.73655C79.161 9.73655 79.1817 9.72618 79.1921 9.72618C79.2267 9.71927 79.2612 9.70545 79.2958 9.69508C79.3303 9.68126 79.3614 9.66744 79.396 9.64671L79.4478 9.61907L79.465 9.60525C79.465 9.60525 79.4961 9.58452 79.51 9.57415H79.5169C79.6171 9.50505 79.7207 9.4394 79.8175 9.37376C79.9418 9.29083 80.0628 9.25282 80.1837 9.26319C80.3081 9.27355 80.4221 9.32884 80.5257 9.43249C80.5326 9.4394 80.543 9.44977 80.5465 9.46013C80.6363 9.58797 80.6743 9.71236 80.6674 9.8402C80.657 9.96804 80.5983 10.0855 80.4912 10.1926L80.4705 10.2099C80.3668 10.2859 80.2632 10.3585 80.1595 10.4241C80.0559 10.4932 79.9488 10.5589 79.8382 10.6211L79.814 10.6314C79.7449 10.6625 79.6793 10.6902 79.6102 10.7178H79.5998C79.5272 10.7489 79.4582 10.7731 79.396 10.7938C79.1679 10.8906 78.9399 10.9804 78.7119 11.0633C78.3871 12.1068 78.1211 13.164 77.9138 14.242V14.2524C77.8827 14.3941 77.8239 14.5081 77.7306 14.5876C77.6339 14.6705 77.5095 14.7119 77.3575 14.7119C77.3437 14.7119 77.3299 14.7119 77.3195 14.7085C77.1744 14.6808 77.0604 14.6187 76.9809 14.5254C76.9014 14.4286 76.86 14.3077 76.8565 14.1557C76.8565 14.1418 76.8565 14.128 76.8565 14.1177C77.0293 13.2055 77.2435 12.3072 77.4957 11.4192C77.4093 11.4399 77.323 11.4572 77.2366 11.4745C76.8738 11.5539 76.5145 11.5885 76.1517 11.5747C75.7924 11.5609 75.4331 11.5021 75.0806 11.3985H75.0668C74.787 11.2914 74.5451 11.1462 74.3447 10.9562C74.1443 10.7662 73.982 10.5381 73.8645 10.2652L73.8576 10.2479C73.7505 9.95767 73.7021 9.6709 73.709 9.38412C73.7159 9.09389 73.7781 8.80366 73.899 8.52379L73.9094 8.50306C73.9889 8.36831 74.0856 8.27848 74.1996 8.23011C74.3206 8.17828 74.4484 8.17828 74.59 8.22665H74.6004C74.7421 8.28193 74.8423 8.36831 74.8941 8.48578C74.9459 8.5998 74.9494 8.73456 74.9045 8.89349L74.8975 8.91768C74.8112 9.12153 74.7697 9.31157 74.7732 9.49469C74.7766 9.66745 74.825 9.83675 74.9114 9.99568C75.0046 10.127 75.1221 10.2306 75.2603 10.3101C75.402 10.393 75.5713 10.4483 75.7613 10.4725C76.0653 10.507 76.3694 10.5105 76.67 10.4863C76.974 10.4621 77.2746 10.4068 77.5786 10.3205H77.5821C77.6754 10.2894 77.7721 10.2617 77.8654 10.2306C78.1591 9.33575 78.4977 8.45123 78.8743 7.58054L78.8881 7.5529L78.8846 7.54253ZM69.1968 12.4177C69.1381 12.6458 69.1035 12.8842 69.1 13.1329C69.1 13.2401 69.1 13.3472 69.1173 13.4543C69.1311 13.5683 69.1553 13.6823 69.1899 13.7998C69.2175 13.9 69.259 13.9898 69.3143 14.0658L69.3212 14.0762C69.373 14.1453 69.4386 14.204 69.5146 14.2559C69.7012 14.3422 69.8947 14.3906 70.0882 14.401C70.2851 14.4113 70.4855 14.3837 70.6894 14.3146C70.9036 14.2455 71.1005 14.1557 71.2836 14.0486C71.4667 13.9414 71.6291 13.8136 71.7777 13.6719C72.1024 13.3437 72.3546 12.9844 72.5309 12.5939C72.7071 12.2001 72.8107 11.7751 72.8384 11.3121C72.8453 11.1151 72.8211 10.9424 72.7554 10.7869C72.6932 10.6314 72.5931 10.4898 72.4549 10.3654C72.3167 10.2652 72.1715 10.1995 72.0195 10.1719C71.864 10.1443 71.7017 10.1477 71.5289 10.1892C71.332 10.2617 71.1592 10.3654 71.021 10.5001C70.8794 10.6349 70.7619 10.8042 70.6721 11.0115C70.5753 11.2361 70.4924 11.4572 70.4233 11.6714C70.3542 11.8891 70.2989 12.1068 70.2575 12.321L70.2506 12.3417C70.216 12.4834 70.1538 12.5905 70.0571 12.6665C69.9569 12.746 69.8325 12.7874 69.6839 12.7874C69.6736 12.7874 69.6598 12.7874 69.6494 12.7874C69.4974 12.7598 69.3764 12.6976 69.2935 12.6009C69.2486 12.549 69.2141 12.4903 69.1933 12.4246L69.1968 12.4177ZM68.5956 11.0633C68.6958 10.9562 68.8098 10.8906 68.9307 10.8664C69.0586 10.8422 69.1899 10.8664 69.3246 10.9389C69.3419 10.9493 69.3592 10.9597 69.373 10.9735C69.4041 11.0011 69.4283 11.0322 69.4525 11.0599C69.5077 10.8906 69.5734 10.7316 69.6494 10.5761C69.7323 10.4068 69.8325 10.2445 69.9396 10.089L69.95 10.0786C70.1711 9.77109 70.4337 9.52924 70.7343 9.35648C71.0383 9.18027 71.3803 9.07662 71.7569 9.04552H71.788C72.099 9.04552 72.3858 9.1008 72.6518 9.21482C72.9213 9.32884 73.1666 9.5016 73.3843 9.72963L73.3981 9.74691C73.6157 10.013 73.7678 10.2997 73.8541 10.6038C73.9405 10.9147 73.9647 11.243 73.9198 11.5885V11.5954C73.8438 12.2484 73.6572 12.8393 73.367 13.3748C73.0733 13.9104 72.6725 14.3872 72.1646 14.7983H72.1577C71.8848 15.0056 71.5946 15.1646 71.294 15.2751H71.2836C70.983 15.3892 70.6652 15.4548 70.3369 15.4824H70.33C70.1711 15.4928 70.0156 15.4893 69.8567 15.4721C69.6943 15.4548 69.5319 15.4202 69.373 15.3753L69.3557 15.3684C69.1968 15.3201 69.0517 15.2509 68.9135 15.1646C68.7718 15.0782 68.644 14.9711 68.5231 14.8467L68.5127 14.8363C68.4021 14.705 68.3123 14.5599 68.2363 14.4044C68.1637 14.2524 68.1085 14.0866 68.0705 13.9173C68.0359 13.7514 68.0117 13.5856 68.0014 13.4197C67.991 13.2539 67.9875 13.088 68.0014 12.9256C68.0255 12.6009 68.0843 12.2864 68.1776 11.9824C68.2708 11.6783 68.3987 11.3846 68.5611 11.1048C68.5714 11.091 68.5818 11.0771 68.5922 11.0633H68.5956ZM51.863 2.88155C51.901 2.70189 51.977 2.56713 52.0876 2.47385L52.1014 2.46348C52.2189 2.37365 52.364 2.33219 52.5402 2.34601H52.5609C52.7337 2.36674 52.8719 2.43238 52.9721 2.54986C53.0688 2.66388 53.1241 2.8159 53.1345 3.01285V3.03703C53.0757 3.74188 53.0101 4.47092 52.9341 5.21723C52.8615 5.95663 52.7821 6.6822 52.6992 7.39742C52.5091 9.0006 52.2915 10.6003 52.0427 12.2001L52.554 12.1137C55.2006 11.6714 57.8402 11.1877 60.4798 10.666C61.4265 10.4794 62.3732 10.2859 63.3164 10.089C63.4269 9.41868 63.5444 8.74837 63.6653 8.08153C64.1352 5.51437 64.6776 2.96447 65.303 0.435314C65.303 0.424948 65.3099 0.414584 65.3134 0.404219C65.3894 0.238372 65.4965 0.120896 65.6381 0.0552489C65.7763 -0.00694363 65.9353 -0.0173097 66.1149 0.0276071C66.1287 0.0276071 66.1426 0.0345177 66.1529 0.041428C66.3153 0.120896 66.4259 0.231462 66.4915 0.369668C66.5537 0.507873 66.5675 0.663355 66.5295 0.839567C66.3533 1.55478 66.184 2.25962 66.0216 2.95756C65.8593 3.66932 65.7038 4.37763 65.5587 5.07902C65.2304 6.64766 64.9299 8.2232 64.6638 9.80565C65.8973 9.54306 67.1307 9.2701 68.3607 8.98678H68.3883C68.5783 8.96605 68.7338 9.0006 68.8547 9.08698C68.9791 9.17681 69.0586 9.31156 69.0931 9.49123V9.50851C69.1208 9.67781 69.0931 9.82983 69.0137 9.95767C68.9342 10.0855 68.8064 10.1823 68.6267 10.2479L68.5991 10.2548C67.839 10.4276 67.0927 10.5969 66.3637 10.7558C65.7418 10.8906 65.0991 11.0288 64.4392 11.167C64.3598 11.6611 64.2838 12.1586 64.2112 12.6527C63.8415 15.1818 63.5479 17.7248 63.3336 20.2782C63.3336 20.292 63.3336 20.3024 63.3267 20.3162C63.2818 20.4958 63.2024 20.6341 63.0883 20.7239C62.9674 20.8206 62.8154 20.8655 62.6357 20.8517H62.615C62.4388 20.831 62.3041 20.7619 62.2039 20.6479C62.1071 20.5339 62.0518 20.3784 62.0415 20.1849V20.1607C62.1002 19.4455 62.1693 18.713 62.2453 17.9701C62.3213 17.2342 62.4042 16.5155 62.4941 15.8107C62.6703 14.3492 62.8707 12.898 63.0953 11.4468C60.8115 11.9202 58.5174 12.3659 56.2094 12.784C54.748 13.0466 53.283 13.2988 51.8216 13.5372C51.7352 14.0624 51.6419 14.591 51.5486 15.1162C51.0857 17.6834 50.5467 20.2333 49.9282 22.7659C49.9282 22.7797 49.9213 22.7901 49.9144 22.8004C49.835 22.9663 49.7244 23.0837 49.5862 23.1494C49.448 23.215 49.2891 23.2254 49.1094 23.177C49.0887 23.1736 49.0714 23.1632 49.0576 23.1528C48.9021 23.0699 48.795 22.9628 48.7363 22.8281C48.6741 22.6899 48.6637 22.5344 48.7052 22.3616V22.3513C48.8779 21.6602 49.0403 20.9657 49.1958 20.2747C49.3582 19.5595 49.5102 18.8443 49.6587 18.1256C49.9593 16.671 50.2323 15.2129 50.481 13.7514C49.7417 13.8689 48.9988 13.9829 48.2595 14.0935C48.2457 14.0935 48.2353 14.0935 48.2215 14.0935C48.0314 14.0935 47.8794 14.0555 47.762 13.9691C47.6341 13.8758 47.5546 13.741 47.5201 13.5614C47.489 13.3783 47.5166 13.2228 47.6065 13.0949L47.6168 13.0811C47.7032 12.9671 47.8345 12.8807 48.0142 12.8254L48.0418 12.8185C48.8261 12.7045 49.5793 12.5905 50.2945 12.4765L50.6987 12.4143C50.7989 11.7958 50.8922 11.1739 50.982 10.5554C51.3482 8.0228 51.6385 5.47636 51.8561 2.9161C51.8561 2.90228 51.8561 2.89192 51.863 2.88155ZM106.912 10.7731C106.977 10.6349 107.067 10.5381 107.178 10.4863C107.295 10.431 107.426 10.431 107.568 10.4829C107.71 10.5312 107.81 10.6176 107.869 10.7351L107.876 10.7454C107.924 10.8526 107.934 10.9804 107.907 11.129L107.9 11.1497C107.592 12.086 107.33 13.0362 107.112 13.9898C106.894 14.9503 106.725 15.9178 106.597 16.8956V16.9163C106.556 17.0683 106.49 17.1824 106.393 17.2618C106.29 17.3448 106.165 17.3793 106.013 17.362C105.861 17.3482 105.744 17.2895 105.661 17.1927C105.581 17.0994 105.54 16.9751 105.533 16.8196V16.7885C105.664 15.7658 105.844 14.7569 106.072 13.7618C106.3 12.7667 106.576 11.7785 106.905 10.8042L106.915 10.78L106.912 10.7731ZM102.9 14.9054C102.8 15.3581 102.71 15.8141 102.634 16.2702C102.831 16.1493 103.018 16.0353 103.194 15.9282L103.208 15.9212C103.284 15.8763 103.363 15.8314 103.446 15.7761C103.529 15.7243 103.612 15.669 103.688 15.6068C103.761 15.5515 103.826 15.4963 103.882 15.4341C103.933 15.3753 103.982 15.3097 104.023 15.2371C104.047 15.1818 104.061 15.1231 104.065 15.0678C104.068 15.0125 104.065 14.9538 104.047 14.8985V14.8778C104.047 14.8778 104.034 14.8502 104.023 14.8398C104.002 14.8225 103.975 14.8052 103.933 14.7914C103.875 14.7845 103.812 14.781 103.747 14.7845C103.678 14.7845 103.598 14.7949 103.515 14.8121H103.491C103.415 14.826 103.329 14.8363 103.225 14.8536C103.115 14.8709 103.021 14.8847 102.945 14.8985H102.935L102.907 14.902L102.9 14.9054ZM102.748 11.4848C102.814 11.3466 102.9 11.2499 103.011 11.1981C103.125 11.1428 103.256 11.1428 103.394 11.1946C103.536 11.243 103.636 11.3259 103.698 11.4434C103.754 11.554 103.768 11.6852 103.74 11.8373L103.733 11.8615C103.522 12.5007 103.336 13.1468 103.166 13.7929C103.246 13.7825 103.322 13.7721 103.405 13.7618C103.536 13.748 103.671 13.7376 103.806 13.7341C103.961 13.7272 104.106 13.7445 104.248 13.7894C104.386 13.8309 104.517 13.9 104.642 13.9898C104.652 13.9967 104.662 14.0071 104.669 14.014C104.904 14.2351 105.049 14.4839 105.105 14.7534C105.163 15.0264 105.125 15.32 105.001 15.631V15.6379C104.932 15.783 104.852 15.9143 104.763 16.0318C104.669 16.1527 104.562 16.2598 104.438 16.3566L104.427 16.3635C104.32 16.4464 104.21 16.5259 104.092 16.6054C103.964 16.6917 103.847 16.7678 103.733 16.8369H103.726C103.387 17.0511 103.014 17.2791 102.634 17.5106L102.427 17.6384C102.389 17.7836 102.32 17.8941 102.223 17.9701C102.119 18.0496 101.995 18.0842 101.847 18.0703C101.695 18.06 101.574 18.0012 101.491 17.901C101.411 17.8077 101.37 17.6799 101.37 17.5244V17.4968L101.377 17.4622C101.356 17.362 101.359 17.2687 101.391 17.1789C101.401 17.1513 101.411 17.1236 101.425 17.0994C101.511 16.4741 101.619 15.8521 101.743 15.2371C101.701 15.2337 101.66 15.2233 101.622 15.2095C101.501 15.1646 101.408 15.0747 101.342 14.94V14.9296C101.273 14.7983 101.263 14.6705 101.304 14.5496C101.346 14.4321 101.429 14.3319 101.56 14.242L101.584 14.2282C101.708 14.166 101.84 14.1108 101.978 14.0589L102.005 14.0486C102.213 13.1917 102.458 12.3452 102.738 11.5056L102.748 11.4814V11.4848ZM98.2568 18.9929C97.9148 19.2347 97.5796 19.4869 97.248 19.7461C96.322 20.4751 95.4548 21.2698 94.6429 22.1267C94.4632 22.3132 94.2905 22.5033 94.1212 22.6968C93.9484 22.8937 93.7826 23.0907 93.6237 23.298C93.4613 23.5018 93.3162 23.7126 93.1883 23.9268C93.0605 24.1445 92.9465 24.3691 92.8463 24.604V24.6109C92.7703 24.7699 92.7115 24.9426 92.6701 25.1292C92.6286 25.3158 92.601 25.5162 92.5906 25.7269C92.5837 25.917 92.6183 26.0793 92.6908 26.221C92.7599 26.3558 92.867 26.4698 93.0156 26.5665C93.1918 26.6322 93.368 26.6564 93.5407 26.646C93.7204 26.6322 93.8966 26.5803 94.0728 26.4871H94.0763C94.2836 26.3834 94.4805 26.2625 94.6636 26.1277C94.8467 25.993 95.0195 25.8409 95.1819 25.6751C95.3788 25.4712 95.5619 25.2605 95.7277 25.0394C95.8936 24.8217 96.0491 24.5867 96.1942 24.3414V24.3345C96.3497 24.0892 96.4913 23.8473 96.6226 23.602C96.7573 23.3532 96.8817 23.101 97.0026 22.8453V22.8384C97.476 21.7915 97.8457 20.7204 98.1186 19.6252C98.1704 19.4178 98.2188 19.2105 98.2637 18.9998L98.2568 18.9929ZM97.7593 12.1897C97.8422 12.1897 97.9251 12.1897 98.0115 12.1897H98.0288C98.319 12.2312 98.5747 12.3279 98.7958 12.4799L98.8096 12.4903C98.8338 12.5076 98.858 12.5248 98.8787 12.5421C98.9305 12.5767 98.9789 12.6112 99.0307 12.6527C99.0411 12.6596 99.048 12.6665 99.0549 12.6769C99.276 12.8945 99.4419 13.1399 99.549 13.4094C99.6319 13.6201 99.6803 13.8447 99.6906 14.0831C99.7494 14.3941 99.7667 14.7154 99.7494 15.0471C99.7494 15.3511 99.739 15.6552 99.7217 15.9523C99.7079 16.2426 99.6837 16.5363 99.6561 16.8299C99.929 16.6745 100.205 16.5224 100.485 16.3739L100.509 16.3635C100.658 16.3117 100.793 16.3048 100.91 16.3497C101.035 16.3946 101.128 16.4879 101.194 16.6261C101.256 16.7608 101.27 16.8887 101.228 17.0131C101.19 17.1305 101.111 17.2307 100.986 17.3206C100.976 17.3275 100.969 17.3309 100.959 17.3379C100.834 17.4035 100.706 17.4726 100.572 17.5452C100.444 17.6143 100.313 17.6903 100.181 17.7628H100.171C99.9428 17.8976 99.7183 18.0323 99.4937 18.1705C99.3693 18.9894 99.1897 19.7945 98.9616 20.5822C98.6092 21.7915 98.1393 22.9628 97.5485 24.0926L97.5416 24.103C97.4 24.3725 97.2479 24.6386 97.0856 24.9011C96.9232 25.1637 96.7504 25.4229 96.5639 25.6751C96.3773 25.9342 96.1735 26.1761 95.9523 26.3972C95.7347 26.6184 95.4963 26.8187 95.2406 27.0053C95.0022 27.1815 94.75 27.3232 94.4805 27.4338C94.211 27.5443 93.9277 27.6238 93.6271 27.6722C93.3092 27.724 93.0156 27.6998 92.7392 27.5962C92.4662 27.496 92.214 27.3197 91.986 27.0675L91.9756 27.0537C91.7994 26.8187 91.6716 26.5665 91.5956 26.3005C91.5196 26.0344 91.4954 25.7546 91.523 25.4609C91.5507 25.1741 91.599 24.9011 91.675 24.642C91.751 24.3829 91.8478 24.1307 91.9722 23.8853C92.1138 23.6158 92.2693 23.3567 92.4351 23.1079C92.6044 22.8557 92.7841 22.6138 92.9776 22.3823C93.1642 22.1578 93.3576 21.9332 93.5649 21.7017C93.7688 21.4736 93.9726 21.256 94.1765 21.0418H94.1799C95.1059 20.0985 96.094 19.2382 97.1409 18.4608C97.5831 18.1325 98.0322 17.8216 98.4952 17.521C98.5159 17.3724 98.5332 17.2238 98.5505 17.0718C98.4779 17.1513 98.4019 17.2307 98.3225 17.3068L98.3121 17.3171C98.1117 17.5037 97.894 17.6626 97.6556 17.7939C97.4138 17.9252 97.1547 18.0323 96.8748 18.1049H96.861C96.7884 18.1222 96.7193 18.1187 96.6468 18.1014C96.5811 18.0842 96.5189 18.0531 96.4567 18.0081L96.4464 18.0012C96.3946 17.9598 96.3497 17.9149 96.3151 17.863C96.284 17.8181 96.2633 17.7697 96.2495 17.7214C96.2218 17.825 96.1734 17.9114 96.0974 17.9736C96.0042 18.0531 95.8798 18.0945 95.7243 18.1014H95.6967C95.3857 18.0703 95.1162 17.9805 94.8882 17.8285C94.6567 17.6765 94.4701 17.4622 94.3285 17.1858L94.3216 17.172C94.2145 16.9129 94.1523 16.6537 94.135 16.3911C94.1177 16.1285 94.1454 15.8625 94.2179 15.593V15.5861C94.3388 15.0471 94.5323 14.5565 94.7984 14.1073C95.0678 13.6547 95.4099 13.247 95.828 12.8807H95.8314C96.0525 12.6976 96.2909 12.5525 96.5466 12.4419C96.8022 12.3314 97.0787 12.2553 97.3723 12.207C97.5002 12.1862 97.6246 12.1793 97.7455 12.1793L97.7593 12.1897ZM96.4706 13.7652L96.4464 13.7756C96.3842 13.8309 96.3255 13.8862 96.2667 13.9484L96.2529 13.9587C95.9869 14.2386 95.7692 14.5426 95.5999 14.8709C95.4306 15.2026 95.3062 15.5585 95.2337 15.9385C95.2199 16.0249 95.2095 16.1078 95.206 16.1804C95.2026 16.2529 95.206 16.3186 95.2095 16.3808V16.3911C95.2164 16.4637 95.2233 16.5293 95.2406 16.5881V16.595C95.2579 16.6503 95.2751 16.7021 95.2993 16.7505V16.7574C95.3201 16.7954 95.3408 16.8299 95.3684 16.861C95.3961 16.8921 95.4237 16.9163 95.4583 16.9371L95.4652 16.944C95.5101 16.9751 95.5585 16.9992 95.6103 17.0131C95.6656 17.0303 95.7278 17.0407 95.7969 17.0442C95.8107 17.0442 95.821 17.0442 95.8314 17.0476C95.9834 17.0856 96.0974 17.1513 96.1735 17.248C96.2149 17.2998 96.246 17.3586 96.2598 17.4208C96.2737 17.3793 96.2944 17.3379 96.3186 17.2998C96.3877 17.1962 96.4982 17.1202 96.6433 17.0683L96.6641 17.0614C96.8714 17.0062 97.0648 16.9267 97.241 16.823C97.4172 16.7194 97.5762 16.5881 97.7213 16.4326L97.7316 16.4222C97.8768 16.2668 98.0011 16.1009 98.1117 15.9212C98.2223 15.7416 98.3156 15.5481 98.3916 15.3442L98.3985 15.3304C98.4676 15.1646 98.5194 14.9849 98.5574 14.7983C98.5954 14.6117 98.6161 14.4148 98.623 14.2075C98.6058 14.1177 98.585 14.0244 98.5574 13.9345V13.9276C98.5228 13.8205 98.4814 13.7203 98.4296 13.6339C98.3881 13.5614 98.3363 13.4957 98.281 13.437C98.2499 13.4128 98.2188 13.3921 98.1842 13.3714C98.0357 13.3092 97.8871 13.2746 97.7351 13.2642H97.7248C97.6487 13.2712 97.5693 13.2884 97.4864 13.3126C97.3171 13.361 97.1512 13.4232 96.9888 13.4957C96.823 13.5717 96.6606 13.6581 96.5017 13.7549C96.4913 13.7618 96.4809 13.7652 96.4671 13.7721L96.4706 13.7652ZM88.5863 15.0816L88.4826 15.0022C88.3997 14.9365 88.3375 14.8605 88.296 14.7707C88.2546 14.6808 88.2373 14.5841 88.2408 14.4804C88.2442 14.3699 88.2753 14.2766 88.3306 14.1937L88.341 14.1799C88.3962 14.1038 88.4723 14.0451 88.569 13.9967L88.5966 13.9864C88.9628 13.8378 89.3256 13.6789 89.6815 13.5026C90.0374 13.3264 90.3932 13.1364 90.7456 12.9291L90.7595 12.9222C91.0877 12.7425 91.4021 12.5456 91.7096 12.3314C92.0171 12.1137 92.3107 11.8787 92.5941 11.63C93.0363 11.2223 93.3784 10.7662 93.6202 10.2652C93.8621 9.76419 94.0037 9.21482 94.0486 8.61708V8.5998C94.0659 8.4616 94.0659 8.3234 94.059 8.18865C94.0521 8.05044 94.0348 7.90878 94.0037 7.77057V7.76366C93.9795 7.63928 93.9484 7.5218 93.907 7.41469C93.869 7.31795 93.8241 7.22812 93.7722 7.14519C93.7446 7.12792 93.7342 7.13137 93.6997 7.12792H93.6444C93.5615 7.13828 93.4785 7.15556 93.3956 7.1832C93.3092 7.21084 93.2229 7.24884 93.14 7.29376H93.1296C92.6459 7.54253 92.2071 7.83967 91.8132 8.19555C91.4194 8.54798 91.0773 8.95914 90.7836 9.41867C90.6143 9.67435 90.4589 9.93694 90.3241 10.2134C90.1859 10.4932 90.065 10.7904 89.9579 11.1048V11.1151C89.8577 11.4088 89.8024 11.7025 89.7955 11.9997C89.7851 12.3003 89.8197 12.6009 89.8992 12.9049V12.9187C89.9164 12.9982 89.9164 13.0742 89.8992 13.1502C89.8819 13.2262 89.8473 13.2953 89.799 13.361C89.7506 13.4266 89.6988 13.4785 89.6366 13.5165C89.5744 13.5579 89.5053 13.5821 89.4293 13.5959C89.2669 13.627 89.1252 13.5959 89.0078 13.5165C88.8972 13.4405 88.8143 13.3161 88.759 13.1502L88.7521 13.1226C88.645 12.6734 88.607 12.2312 88.6415 11.7924C88.6726 11.3536 88.7763 10.9182 88.949 10.4898C89.0976 10.0924 89.2704 9.71236 89.4707 9.34611C89.6711 8.98333 89.8957 8.63436 90.1514 8.29575C90.3829 7.99516 90.6351 7.71529 90.908 7.45961C91.1775 7.20393 91.4677 6.97244 91.7787 6.76167C91.9963 6.60274 92.2244 6.46453 92.4662 6.3436C92.7081 6.22267 92.9568 6.12247 93.2125 6.03955H93.2298C93.5649 5.94626 93.869 5.95317 94.135 6.05682C94.4079 6.16048 94.6394 6.36433 94.8295 6.66147L94.8398 6.68221C95.0126 7.02081 95.13 7.36978 95.1922 7.73257C95.2544 8.09536 95.2613 8.46505 95.213 8.84857C95.13 9.61216 94.9193 10.3101 94.5876 10.9424C94.2559 11.5747 93.8033 12.1413 93.2263 12.6423L93.2194 12.6492C92.9085 12.9049 92.5872 13.1468 92.2624 13.3714C91.9342 13.5959 91.5956 13.8067 91.2501 14.0002C90.991 14.1522 90.7284 14.2939 90.4623 14.4321H90.566C90.8873 14.4217 91.1879 14.4632 91.4712 14.5599C91.7545 14.6601 92.0171 14.8121 92.2555 15.0195L92.2727 15.0367C92.3868 15.1542 92.4835 15.2786 92.563 15.4133C92.6424 15.5515 92.7046 15.7036 92.7461 15.8625C92.7875 16.018 92.8152 16.1735 92.829 16.329C92.8463 16.4844 92.8497 16.6399 92.8463 16.7954C92.8325 17.0925 92.7875 17.3793 92.7081 17.6557C92.6286 17.9321 92.5146 18.2016 92.366 18.4573V18.4642C92.1967 18.7337 92.0033 18.9652 91.7787 19.1656C91.5541 19.3626 91.2984 19.525 91.0151 19.6493C90.7284 19.7737 90.4381 19.8497 90.141 19.8739C89.8439 19.8981 89.5433 19.8705 89.2323 19.791H89.2254C88.9248 19.6977 88.6588 19.563 88.4308 19.3902C88.2028 19.2174 88.0093 19.0032 87.8503 18.751C87.6949 18.4988 87.5878 18.2327 87.5256 17.9529C87.4668 17.673 87.453 17.3793 87.4876 17.0753V17.0545C87.5843 16.481 87.7882 15.9903 88.106 15.5826C88.2477 15.403 88.4066 15.2371 88.5897 15.0886L88.5863 15.0816ZM89.9303 15.6345L89.9061 15.6483C89.9061 15.6483 89.8853 15.6621 89.8715 15.6656C89.4673 15.8383 89.1632 16.0733 88.956 16.3704C88.7486 16.6676 88.6346 17.0338 88.6173 17.4691C88.6243 17.6523 88.6623 17.8216 88.7314 17.9701C88.797 18.1187 88.8938 18.2535 89.0181 18.3709C89.1425 18.4919 89.2842 18.5782 89.4362 18.637C89.5917 18.6957 89.7644 18.7234 89.951 18.7268C90.1548 18.7199 90.3449 18.6819 90.5142 18.6128C90.6835 18.5437 90.8424 18.44 90.9806 18.3053C91.1257 18.1671 91.2466 18.0151 91.3468 17.8527C91.447 17.6903 91.5265 17.5141 91.5817 17.324V17.3137C91.6439 17.1202 91.675 16.9301 91.6785 16.7367C91.6854 16.5432 91.6647 16.3462 91.6163 16.1493C91.5679 16.0076 91.4919 15.8936 91.3952 15.8072C91.295 15.7208 91.1672 15.6587 91.0117 15.6206C90.9253 15.6034 90.8389 15.5896 90.756 15.5826C90.6765 15.5757 90.5936 15.5723 90.5072 15.5757C90.3967 15.5965 90.2792 15.6103 90.1583 15.6241C90.0823 15.631 90.0063 15.6379 89.9268 15.6414L89.9303 15.6345ZM85.2626 17.5382L85.2798 17.4968C85.3316 17.3793 85.3835 17.2549 85.4284 17.1305L85.4353 17.1167C85.4733 17.0165 85.4906 16.9198 85.4871 16.823C85.4837 16.7263 85.456 16.6261 85.4111 16.5259C85.304 16.3531 85.1658 16.2218 84.9965 16.1355C84.8203 16.0456 84.6095 16.0042 84.3642 16.0042C84.112 16.0214 83.8702 16.0698 83.6387 16.1562C83.4072 16.2426 83.1861 16.367 82.9753 16.5259H82.9719C82.7577 16.6917 82.5711 16.8645 82.4122 17.0442C82.2498 17.2238 82.115 17.4139 82.0045 17.6143C81.9008 17.7974 81.8179 17.9874 81.7523 18.1844C81.6866 18.3813 81.6417 18.5852 81.6175 18.7959C81.5933 18.9963 81.6106 19.1794 81.6659 19.3487C81.7212 19.5146 81.8144 19.6701 81.9457 19.8152C82.0908 19.9327 82.2498 20.0052 82.4225 20.0398C82.6022 20.0743 82.7991 20.064 83.0168 20.0121C83.2345 19.9499 83.4348 19.8636 83.6145 19.753C83.7907 19.6424 83.9462 19.5077 84.0844 19.3487C84.2329 19.1656 84.3746 18.9825 84.499 18.7959C84.6268 18.6059 84.7443 18.4089 84.8479 18.2085C84.962 17.9943 85.0898 17.787 85.2246 17.5901L85.266 17.5313L85.2626 17.5382ZM75.6611 21.5635L75.6438 21.5462L75.5851 21.8641C75.4745 22.41 75.3778 22.949 75.288 23.4811C75.1981 24.027 75.1152 24.5764 75.0426 25.1257C74.8975 26.2003 74.7835 27.2817 74.6971 28.3736C74.6108 29.4723 74.552 30.5641 74.5244 31.6525C74.5244 31.6663 74.5244 31.6801 74.5244 31.6939C74.5002 31.8391 74.438 31.9496 74.3447 32.0291C74.2549 32.1086 74.1374 32.15 73.9992 32.1569C73.9785 32.1569 73.9612 32.1569 73.9405 32.1569C73.7988 32.1258 73.6883 32.0602 73.6088 31.9634C73.5294 31.8667 73.4914 31.7458 73.4948 31.6007C73.4948 31.4452 73.4948 31.2966 73.4983 31.148C73.5017 30.9926 73.5086 30.844 73.5121 30.6954C73.5535 29.4827 73.6365 28.2768 73.7574 27.0744C73.8783 25.8651 74.0373 24.6627 74.2342 23.4673C74.3275 22.9006 74.4277 22.3478 74.5348 21.8019C74.6419 21.2629 74.7559 20.717 74.8803 20.1607C74.9597 19.7012 75.0737 19.2589 75.2223 18.8236C75.3674 18.3951 75.5436 17.9771 75.7509 17.5693L75.7578 17.5521C75.8719 17.3482 76.0031 17.1547 76.1517 16.9751C76.3003 16.7919 76.4696 16.6226 76.6527 16.4672C76.8427 16.3048 77.0431 16.1735 77.2573 16.0733C77.4681 15.9765 77.6926 15.9074 77.9345 15.8694H77.9656C78.47 15.8349 78.9123 15.9282 79.2958 16.1355C79.6758 16.3462 79.9902 16.671 80.239 17.1167V17.1236C80.3599 17.3551 80.4394 17.5901 80.4843 17.8285C80.505 17.946 80.5188 18.0669 80.5188 18.1878C80.5983 17.8872 80.7088 17.6039 80.8436 17.3379C80.9852 17.0614 81.158 16.8023 81.3584 16.5604L81.3653 16.5535C81.583 16.284 81.8317 16.0422 82.1081 15.8245C82.388 15.6068 82.6989 15.4168 83.0444 15.2509C83.3969 15.0816 83.7562 14.978 84.1189 14.9434C84.4817 14.9054 84.848 14.9365 85.2211 15.0367L85.2453 15.0436C85.5942 15.1611 85.8844 15.327 86.1125 15.5481L86.1228 15.5585C86.3509 15.7796 86.5202 16.0491 86.6273 16.367V16.3808C86.6722 16.5501 86.686 16.7159 86.6791 16.8818C86.6791 16.9405 86.6687 16.9958 86.6618 17.0545C86.7033 17.1098 86.7309 17.172 86.7413 17.2411C86.762 17.3655 86.7275 17.4968 86.6411 17.635C86.6238 17.6765 86.6134 17.7283 86.61 17.7905V17.8077C86.6031 17.8734 86.6065 17.9529 86.61 18.0427C86.61 18.0565 86.61 18.0669 86.61 18.0807C86.6031 18.1982 86.5996 18.3122 86.5996 18.4228C86.5996 18.5368 86.6031 18.6543 86.61 18.7717C86.6238 18.9652 86.6791 19.1276 86.7793 19.2624C86.883 19.4006 87.0315 19.5111 87.2285 19.5941C87.2423 19.601 87.2526 19.6079 87.2664 19.6148C87.4012 19.7115 87.4772 19.8256 87.5014 19.9568C87.5256 20.0881 87.491 20.2229 87.4047 20.3645C87.3977 20.3749 87.3874 20.3887 87.3805 20.3956C87.2699 20.5062 87.1455 20.5753 87.0108 20.5995H86.9935C86.8657 20.6202 86.7309 20.5995 86.5927 20.5373H86.5824C86.2472 20.3611 85.9812 20.1434 85.7912 19.8774C85.6702 19.7115 85.5804 19.5284 85.5148 19.3315C85.3731 19.5699 85.2073 19.791 85.0138 19.9983C84.7858 20.2436 84.5266 20.4647 84.233 20.6651H84.2295C83.9255 20.8621 83.6076 20.9968 83.2725 21.0729C82.9408 21.1489 82.5953 21.1696 82.236 21.1281H82.2187C81.8559 21.0659 81.545 20.9416 81.2824 20.7619C81.0163 20.5753 80.809 20.33 80.657 20.0259V20.019C80.5257 19.7288 80.4497 19.4317 80.4255 19.1276C80.4255 19.0861 80.4186 19.0447 80.4186 19.0032C80.3979 19.0931 80.3737 19.1794 80.3461 19.2658C80.2735 19.4939 80.1802 19.7184 80.0628 19.9396C79.9488 20.1711 79.8175 20.3922 79.6724 20.603C79.5238 20.8137 79.3614 21.0176 79.1783 21.2111C78.9917 21.4045 78.7879 21.5738 78.5702 21.7155C78.3491 21.8572 78.1107 21.9746 77.8585 22.0645H77.8481C77.589 22.1405 77.3333 22.175 77.0777 22.1612C76.8254 22.1474 76.5767 22.0921 76.3279 21.9919C76.0723 21.8883 75.8546 21.7466 75.668 21.5669L75.6611 21.5635ZM76.701 18.0047C76.6941 18.0842 76.67 18.1636 76.6285 18.2431L76.6216 18.2535C76.5698 18.3467 76.5214 18.44 76.4799 18.5333C76.435 18.6301 76.3901 18.7303 76.3486 18.8339C76.2726 19.0136 76.2104 19.1967 76.169 19.3902C76.1241 19.5802 76.0999 19.7841 76.0895 19.9914C76.0826 20.1814 76.1172 20.3542 76.1863 20.5028C76.2554 20.6548 76.3694 20.7895 76.5179 20.9105C76.67 21.0141 76.822 21.0798 76.974 21.1074C77.1226 21.135 77.2746 21.1281 77.4266 21.0832C77.5924 21.0348 77.7514 20.9692 77.8999 20.8828C78.0485 20.7964 78.1902 20.6893 78.3249 20.5615C78.622 20.2816 78.8673 19.9741 79.0505 19.6355C79.237 19.2935 79.3683 18.9238 79.4443 18.5195C79.4892 18.1844 79.4512 17.8907 79.3338 17.6384C79.2197 17.3897 79.0228 17.1789 78.743 17.0027C78.6255 16.9474 78.5046 16.9129 78.3767 16.9025C78.2454 16.8887 78.1107 16.9025 77.969 16.9336H77.9621C77.8101 16.9785 77.665 17.0442 77.5268 17.1271C77.3851 17.2135 77.2538 17.324 77.1329 17.4519C77.012 17.5797 76.9015 17.7145 76.8047 17.8561C76.7702 17.9045 76.7391 17.9529 76.708 18.0047H76.701ZM68.4678 17.7767C68.5369 17.6384 68.6233 17.5452 68.7338 17.4968C68.8513 17.445 68.9826 17.445 69.1242 17.4968L69.1381 17.5037C69.2071 17.5313 69.2693 17.5659 69.3177 17.6108C69.6943 17.4761 70.0743 17.3551 70.4579 17.248C71.4563 16.9681 72.4825 16.7781 73.5363 16.6814H73.5432C73.6987 16.671 73.8265 16.7021 73.9301 16.7747C74.0373 16.8507 74.1063 16.9612 74.134 17.1098C74.1478 17.1824 74.1444 17.2515 74.1271 17.3171C74.1133 17.3793 74.0856 17.4415 74.0511 17.5002V17.5071C74.0061 17.5728 73.9543 17.6212 73.899 17.6592L73.8852 17.6661C73.83 17.7006 73.7712 17.7214 73.709 17.7352H73.6918C73.6227 17.7421 73.5535 17.749 73.4844 17.7559C73.3048 18.5471 73.1493 19.3384 73.0146 20.1331C72.8625 21.0279 72.7416 21.9263 72.6483 22.8315L72.6414 22.8592C72.6069 23.0077 72.5412 23.1217 72.4479 23.1978H72.4445C72.3443 23.2807 72.2199 23.3118 72.0748 23.3014H72.0575C71.9159 23.2807 71.8053 23.2254 71.7224 23.1321C71.6429 23.0388 71.598 22.9179 71.5876 22.7624C71.5876 22.7521 71.5876 22.7382 71.5876 22.7279C71.6844 21.7846 71.8122 20.8483 71.9711 19.9223C72.0852 19.2485 72.2199 18.5782 72.3685 17.9079C71.826 18.0012 71.294 18.1222 70.7654 18.2673C70.2609 18.4089 69.76 18.5713 69.2693 18.7614C69.062 19.4248 68.8789 20.0951 68.7235 20.7723C68.5231 21.643 68.3676 22.5275 68.2536 23.4258C68.2536 23.4362 68.2501 23.45 68.2467 23.4604C68.2052 23.6055 68.1326 23.7126 68.0359 23.7886C67.9323 23.8681 67.8044 23.9026 67.6593 23.8888H67.6489C67.5038 23.875 67.3898 23.8197 67.3069 23.7195C67.2309 23.6227 67.1929 23.4949 67.1929 23.336V23.3118C67.3104 22.3754 67.4762 21.4495 67.6835 20.5304C67.7768 20.1261 67.877 19.7219 67.9875 19.3211L67.9634 19.3315C67.8148 19.3764 67.6835 19.3798 67.5695 19.3315C67.4486 19.2831 67.3587 19.1933 67.2931 19.0585C67.224 18.9203 67.2136 18.789 67.2585 18.6646C67.3 18.5471 67.3864 18.4504 67.5211 18.3675L67.5453 18.3537C67.8286 18.2155 68.1119 18.0876 68.3987 17.9667L68.4505 17.8112C68.4505 17.8112 68.4574 17.7905 68.4643 17.7801L68.4678 17.7767ZM81.0613 10.9044C81.0198 10.9009 80.9818 10.8906 80.9438 10.8767C80.8229 10.8318 80.733 10.7454 80.6674 10.6176L80.657 10.6003C80.5983 10.4656 80.5879 10.3412 80.6294 10.2168C80.6674 10.0993 80.7469 9.99914 80.8712 9.91276L80.8954 9.89894C81.0233 9.83675 81.1546 9.78146 81.2893 9.72963L81.3204 9.71927C81.5277 8.8624 81.7695 8.01589 82.0528 7.17629L82.0632 7.1521C82.1289 7.0139 82.2152 6.91715 82.3258 6.86533C82.4398 6.81005 82.5711 6.81004 82.7093 6.86187C82.851 6.91024 82.9512 6.99317 83.0133 7.11064C83.0686 7.2212 83.0824 7.3525 83.0548 7.50453L83.0479 7.52871C82.8371 8.16791 82.6506 8.81402 82.4813 9.46013C82.5607 9.44977 82.6368 9.4394 82.7197 9.42904C82.8475 9.41522 82.9822 9.40485 83.117 9.4014H83.1204C83.269 9.39449 83.4141 9.41176 83.5523 9.44977H83.5627C83.6974 9.49469 83.8287 9.55688 83.9566 9.64326C83.9669 9.65017 83.9773 9.65708 83.9877 9.66745C84.2226 9.89203 84.3677 10.1443 84.4264 10.4172C84.4852 10.6902 84.4506 10.9839 84.3297 11.2914L84.3228 11.3052C84.2537 11.4503 84.1708 11.5816 84.0775 11.6991C83.9807 11.82 83.8736 11.9271 83.7527 12.0238C83.6422 12.1102 83.5281 12.1931 83.4141 12.2726C83.3001 12.3521 83.1861 12.4246 83.0721 12.4972C82.6437 12.7771 82.1876 13.0431 81.7454 13.3092C81.7074 13.4543 81.6383 13.5648 81.545 13.6374C81.4413 13.7169 81.3169 13.7514 81.1684 13.7376C81.0129 13.7272 80.8954 13.6685 80.8125 13.5648C80.733 13.4681 80.6985 13.3403 80.7019 13.1813V13.164V13.1606C80.6778 13.05 80.6812 12.9498 80.7123 12.8565V12.8427C80.7261 12.8151 80.7365 12.7909 80.7503 12.7667C80.8367 12.1413 80.9403 11.5228 81.0647 10.9044H81.0613Z" fill="#FFC800"/>
</svg>
