<svg width="233" height="35" viewBox="0 0 233 35" fill="none" xmlns="http://www.w3.org/2000/svg">
<path d="M69.4438 30.0564C69.4438 28.5936 69.8095 26.8696 71.1329 26.1034C71.9339 25.6507 73.2051 25.4243 73.8145 25.2675C74.215 25.1457 74.5459 24.9193 74.5633 24.5884H75.5036C75.5036 25.4243 75.0683 25.8248 74.3021 26.0338C73.7797 26.1731 72.3866 26.4169 71.6379 26.8C70.8195 27.2353 70.4015 28.1757 70.2971 29.3946H70.3319C70.7846 28.2801 71.8294 27.6707 73.0658 27.6707C74.8767 27.6707 76.1131 28.9419 76.1131 30.7877C76.1131 32.6336 74.8419 34.0616 72.7871 34.0616C70.9239 34.0616 69.4264 32.9471 69.4264 30.0564M75.1031 30.84C75.1031 29.4121 74.0757 28.5414 72.8046 28.5414C71.5334 28.5414 70.506 29.3946 70.506 30.8226C70.506 32.2505 71.5508 33.1212 72.8046 33.1212C74.0583 33.1212 75.1031 32.2679 75.1031 30.84Z" fill="white"/>
<path d="M77.3668 27.7751H78.3245V32.4247H78.342L81.8246 27.7751H82.7823V33.87H81.8246V29.2379H81.8072L78.342 33.87H77.3668V27.7751Z" fill="white"/>
<path d="M83.8098 33.4869L84.2103 32.651C84.7327 32.9122 85.4292 33.1734 86.3696 33.1734C87.3099 33.1734 88.0761 32.9122 88.0761 32.1112C88.0761 31.3102 87.5014 31.0664 86.4218 31.0664H85.2725V30.2305H86.3696C87.2925 30.2305 87.8671 30.0215 87.8671 29.3424C87.8671 28.7155 87.2925 28.4543 86.387 28.4543C85.6034 28.4543 84.8372 28.6807 84.3322 28.8722L84.0014 28.0189C84.576 27.81 85.4467 27.5662 86.4218 27.5662C87.9542 27.5662 88.8771 28.1234 88.8771 29.1508C88.8771 29.9345 88.3547 30.4743 87.4318 30.5962V30.631C88.4417 30.7181 89.0338 31.2579 89.0338 32.2157C89.0338 33.3476 88.2154 34.079 86.3347 34.079C85.2725 34.079 84.4367 33.8352 83.8098 33.5043" fill="white"/>
<path d="M95.7552 27.7751V33.87H94.8149V31.0838H91.2626V33.87H90.3223V27.7751H91.2626V30.2131H94.8149V27.7751H95.7552Z" fill="white"/>
<path d="M103.034 30.7878V30.9619H97.9666C97.9841 32.3028 98.8721 33.156 100.161 33.156C101.293 33.156 101.867 32.4769 102.25 31.9893L102.929 32.6162C102.477 33.2431 101.71 34.079 100.178 34.079C98.2452 34.079 97.0089 32.7729 97.0089 30.8574C97.0089 28.9419 98.2452 27.601 100.108 27.601C102.094 27.601 103.034 28.9941 103.034 30.8052M98.0189 30.2479H102.007C101.919 29.1334 101.223 28.4891 100.056 28.4891C98.994 28.4891 98.1582 29.0986 98.0189 30.2479Z" fill="white"/>
<path d="M103.905 30.8226C103.905 28.8896 105.263 27.5836 107.213 27.5836C107.997 27.5836 108.641 27.7926 109.303 28.1931L108.85 29.0115C108.328 28.7155 107.805 28.5065 107.196 28.5065C105.82 28.5065 104.915 29.5339 104.915 30.8226C104.915 32.1112 105.803 33.1386 107.196 33.1386C107.805 33.1386 108.328 32.9471 108.85 32.6336L109.303 33.4521C108.658 33.8526 107.997 34.0616 107.213 34.0616C105.263 34.0616 103.905 32.7555 103.905 30.8226Z" fill="white"/>
<path d="M75.9737 4.00519C79.4738 4.00519 82.2947 6.56503 82.2947 10.0652C82.2947 13.5654 79.4215 16.1601 76.1653 16.1601C74.6329 16.1601 73.1528 15.7247 72.0383 14.4709H71.899V23.2824H69.5657V11.0404C69.5657 6.77399 72.0209 4.0226 75.9737 4.0226M75.9389 14.1227C78.2549 14.1227 79.822 12.2942 79.822 10.0826C79.822 7.87107 78.2723 6.07744 75.9389 6.07744C73.6055 6.07744 71.9861 7.87107 71.9861 10.0652C71.9861 12.2594 73.623 14.1227 75.9389 14.1227Z" fill="white"/>
<path d="M84.4541 10.0652C84.4541 6.56504 87.3795 3.98778 90.8273 3.98778C94.2751 3.98778 97.2006 6.56504 97.2006 10.0652C97.2006 13.5654 94.2751 16.1427 90.8273 16.1427C87.3795 16.1427 84.4541 13.5654 84.4541 10.0652ZM90.8273 14.0878C93.1607 14.0878 94.7279 12.2942 94.7279 10.0652C94.7279 7.83625 93.1433 6.04262 90.8273 6.04262C88.5114 6.04262 86.9268 7.81883 86.9268 10.0652C86.9268 12.3116 88.5114 14.0878 90.8273 14.0878Z" fill="white"/>
<path d="M105.785 16.1427C102.128 16.1427 99.3423 13.5828 99.3423 10.0652C99.3423 6.54762 102.059 4.00519 105.698 4.00519C108.484 4.00519 111.096 5.5202 111.775 8.39349H109.372C108.798 6.84366 107.387 6.04261 105.768 6.04261C103.312 6.04261 101.815 7.87107 101.815 10.1001C101.815 12.329 103.365 14.0878 105.82 14.0878C107.422 14.0878 108.867 13.3564 109.425 11.6673H111.828C110.957 14.7321 108.467 16.1253 105.768 16.1253" fill="white"/>
<path d="M120.482 14.4535L116.651 6.46055H116.581V15.8989H114.335V4.24899H117.905L121.701 12.2071H121.771L125.567 4.24899H129.136V15.8989H126.89V6.46055H126.82L123.007 14.4535H120.482Z" fill="white"/>
<path d="M131.626 10.0652C131.626 6.56504 134.552 3.98778 138 3.98778C141.448 3.98778 144.373 6.56504 144.373 10.0652C144.373 13.5654 141.448 16.1427 138 16.1427C134.552 16.1427 131.626 13.5654 131.626 10.0652ZM138 14.0878C140.333 14.0878 141.9 12.2942 141.9 10.0652C141.9 7.83625 140.316 6.04262 138 6.04262C135.684 6.04262 134.099 7.81883 134.099 10.0652C134.099 12.3116 135.684 14.0878 138 14.0878Z" fill="white"/>
<path d="M145.557 15.9859V13.5828H145.609C146.062 13.5828 146.602 13.3913 146.933 13.0082C147.368 12.5206 147.577 11.6673 147.821 10.3961L148.151 8.5328C148.535 6.39089 149.301 4.21416 152.522 4.21416H157.067V15.8989H154.734V6.37347H152.923C151.112 6.37347 150.729 6.87848 150.293 9.35125L149.997 11.0926C149.736 12.6947 149.336 14.0704 148.5 14.9585C147.873 15.6202 146.985 16.0034 145.801 16.0034H145.557V15.9859Z" fill="white"/>
<path d="M159.644 10.0652C159.644 6.56504 162.57 3.98778 166.018 3.98778C169.465 3.98778 172.391 6.56504 172.391 10.0652C172.391 13.5654 169.465 16.1427 166.018 16.1427C162.57 16.1427 159.644 13.5654 159.644 10.0652ZM166.018 14.0878C168.351 14.0878 169.918 12.2942 169.918 10.0652C169.918 7.83625 168.333 6.04262 166.018 6.04262C163.702 6.04262 162.117 7.81883 162.117 10.0652C162.117 12.3116 163.702 14.0878 166.018 14.0878Z" fill="white"/>
<path d="M175.072 18.7199H172.826V13.7396H174.341C175.003 12.9908 175.351 11.8763 175.664 10.5354L176.169 8.37607C176.657 6.30382 177.545 4.21416 180.418 4.21416H184.946V13.7396H186.635V18.7199H184.388V15.8989H175.072V18.7199ZM182.647 13.7744V6.32124H180.47C179.06 6.32124 178.572 7.45314 178.294 8.6547L177.771 10.9011C177.493 12.1549 177.057 13.1823 176.622 13.6177V13.7918H182.647V13.7744Z" fill="white"/>
<path d="M194.749 16.1427C191.04 16.1427 188.341 13.5828 188.341 10.0652C188.341 6.54762 191.058 3.98778 194.662 3.98778C197.448 3.98778 200.809 5.81624 200.809 10.2394V10.7269H190.657C190.901 12.6773 192.416 14.0878 194.714 14.0878C196.073 14.0878 197.709 13.5828 198.162 12.4161H200.565C199.834 14.9759 197.117 16.1427 194.749 16.1427ZM190.709 0H193.112V2.40311H190.709V0ZM198.389 8.96815C198.023 7.20935 196.665 6.02521 194.627 6.02521C192.59 6.02521 191.197 7.29642 190.762 8.96815H198.371H198.389ZM195.951 0H198.354V2.40311H195.951V0Z" fill="white"/>
<path d="M211.797 4.24899V8.86366H213.747L216.498 4.24899H219.058L215.645 9.80401L219.337 15.8815H216.725L213.782 10.9882H211.797V15.8815H209.603V10.9882H207.635L204.675 15.8815H202.08L205.772 9.80401L202.359 4.24899H204.919L207.652 8.86366H209.603V4.24899H211.797Z" fill="white"/>
<path d="M220.956 10.6573L220.921 4.24899H223.255V7.55762H223.342C224.317 6.35606 225.571 5.78141 227.068 5.78141C229.924 5.78141 232.24 7.9059 232.24 10.8837C232.24 13.8614 229.872 16.1427 226.633 16.1427C223.394 16.1427 220.974 13.8266 220.956 10.6573ZM226.581 14.1052C228.426 14.1052 229.767 12.7992 229.767 10.9882C229.767 9.17711 228.426 7.83624 226.581 7.83624C224.735 7.83624 223.411 9.1597 223.411 10.9882C223.411 12.8166 224.752 14.1052 226.581 14.1052Z" fill="white"/>
<path d="M29.2193 34.9845L6.23392 21.3146V33.87H0V10.3787L28.5751 27.3746L57.9337 2.43794V33.87H51.6998V15.8815L29.2193 34.9845Z" fill="#FFC800"/>
</svg>
